<svg width="15" height="18" viewBox="0 0 15 18" fill="none" xmlns="http://www.w3.org/2000/svg">
<path d="M5.2115 17.3707C4.66364 18.0281 3.77302 18.0281 3.22517 17.3707L0.525167 14.1293C-0.0240142 13.4719 -0.0240142 12.4031 0.525167 11.7457L2.01198 9.95976L3.41853 11.6473C3.60017 11.8687 3.899 11.8687 4.08064 11.6473C4.26521 11.4293 4.26521 11.0707 4.08064 10.8527L2.67468 9.16523L3.88728 7.70977L5.29353 9.39726C5.47517 9.61875 5.774 9.61875 5.95564 9.39726C6.14021 9.1793 6.14021 8.8207 5.95564 8.60273L4.54939 6.91523L5.76228 5.45977L7.16853 7.14727C7.35017 7.36875 7.649 7.36875 7.83064 7.14727C8.01521 6.9293 8.01521 6.5707 7.83064 6.35273L6.42439 4.66523L7.63728 3.21012L9.04353 4.89727C9.22517 5.11875 9.524 5.11875 9.70564 4.89727C9.89021 4.6793 9.89021 4.3207 9.70564 4.10273L8.29939 2.41488L9.78767 0.630703C10.3355 -0.0283189 11.2261 -0.0283189 11.774 0.630703L14.4752 3.8707C15.023 4.52812 15.023 5.59687 14.4752 6.2543L5.2115 17.3707Z" fill="black"/>
</svg>
