<svg width="45" height="42" viewBox="0 0 45 42" fill="none" xmlns="http://www.w3.org/2000/svg">
<rect width="45" height="42" rx="21" fill="white"/>
<path d="M44.2969 21C44.2969 9.76172 34.541 0.65625 22.5 0.65625C10.459 0.65625 0.703125 9.76172 0.703125 21C0.703125 31.1538 8.67393 39.5702 19.0942 41.0977V26.8808H13.5571V21H19.0942V16.5178C19.0942 11.4196 22.3462 8.60344 27.327 8.60344C29.7123 8.60344 32.2066 9.00047 32.2066 9.00047V14.0044H29.4574C26.7504 14.0044 25.9058 15.5728 25.9058 17.1814V21H31.9509L30.9841 26.8808H25.9058V41.0977C36.3261 39.5702 44.2969 31.1538 44.2969 21Z" fill="#183153"/>
</svg>
