<svg width="35" height="35" viewBox="0 0 35 35" fill="none" xmlns="http://www.w3.org/2000/svg">
<g clip-path="url(#clip0_64_240)">
<path d="M31.25 2.1875H3.75C2.75544 2.1875 1.80161 2.5332 1.09835 3.14856C0.395088 3.76391 0 4.59851 0 5.46875L0 29.5312C0 30.4015 0.395088 31.2361 1.09835 31.8514C1.80161 32.4668 2.75544 32.8125 3.75 32.8125H14.4727V22.4007H9.55078V17.5H14.4727V13.7648C14.4727 9.51631 17.3633 7.16953 21.7906 7.16953C23.9109 7.16953 26.1281 7.50039 26.1281 7.50039V11.6703H23.6852C21.2781 11.6703 20.5273 12.9773 20.5273 14.3179V17.5H25.9008L25.0414 22.4007H20.5273V32.8125H31.25C32.2446 32.8125 33.1984 32.4668 33.9016 31.8514C34.6049 31.2361 35 30.4015 35 29.5312V5.46875C35 4.59851 34.6049 3.76391 33.9016 3.14856C33.1984 2.5332 32.2446 2.1875 31.25 2.1875Z" fill="white"/>
</g>
<defs>
<clipPath id="clip0_64_240">
<rect width="35" height="35" fill="white"/>
</clipPath>
</defs>
</svg>
