<svg width="36" height="35" viewBox="0 0 36 35" fill="none" xmlns="http://www.w3.org/2000/svg">
<g clip-path="url(#clip0_64_244)">
<path d="M18 13.8537C17.1523 13.854 16.3238 14.0681 15.6191 14.4689C14.9145 14.8697 14.3653 15.4393 14.0412 16.1056C13.717 16.7719 13.6323 17.505 13.7979 18.2122C13.9635 18.9194 14.3718 19.569 14.9713 20.0788C15.5708 20.5886 16.3346 20.9357 17.166 21.0763C17.9974 21.2169 18.8591 21.1446 19.6423 20.8686C20.4254 20.5926 21.0947 20.1252 21.5656 19.5256C22.0365 18.926 22.2879 18.2211 22.2879 17.5C22.287 16.5329 21.8349 15.6057 21.0309 14.922C20.2269 14.2383 19.1368 13.8541 18 13.8537ZM28.0213 11.051C27.8031 10.5806 27.4736 10.1533 27.0533 9.7957C26.6329 9.4381 26.1307 9.15779 25.5777 8.97217C23.8902 8.40547 19.8723 8.53262 18 8.53262C16.1277 8.53262 12.1138 8.40068 10.4215 8.97217C9.86853 9.15779 9.36628 9.4381 8.94592 9.7957C8.52556 10.1533 8.19606 10.5806 7.97786 11.051C7.3125 12.4865 7.46116 15.9079 7.46116 17.4993C7.46116 19.0907 7.3125 22.508 7.98107 23.9483C8.19928 24.4188 8.52878 24.846 8.94914 25.2036C9.3695 25.5612 9.87175 25.8415 10.4247 26.0271C12.1122 26.5938 16.1301 26.4667 18.0032 26.4667C19.8763 26.4667 23.8886 26.5986 25.5809 26.0271C26.1339 25.8415 26.6361 25.5612 27.0565 25.2036C27.4768 24.846 27.8063 24.4188 28.0246 23.9483C28.6955 22.5128 28.5412 19.0914 28.5412 17.5C28.5412 15.9086 28.6955 12.492 28.0246 11.0517L28.0213 11.051ZM18 23.1055C16.6968 23.1055 15.4228 22.7767 14.3392 22.1608C13.2556 21.5448 12.411 20.6694 11.9123 19.6451C11.4136 18.6209 11.2831 17.4938 11.5373 16.4064C11.7916 15.3191 12.4191 14.3203 13.3407 13.5363C14.2622 12.7524 15.4363 12.2185 16.7145 12.0022C17.9927 11.786 19.3176 11.897 20.5216 12.3212C21.7256 12.7455 22.7548 13.464 23.4788 14.3858C24.2028 15.3076 24.5893 16.3913 24.5893 17.5C24.5903 18.2364 24.4206 18.9657 24.0899 19.6462C23.7591 20.3267 23.2738 20.945 22.6617 21.4657C22.0496 21.9864 21.3228 22.3992 20.5229 22.6806C19.7229 22.962 18.8656 23.1064 18 23.1055ZM24.8609 12.9678C24.5567 12.9679 24.2592 12.8913 24.0062 12.7476C23.7532 12.6039 23.5559 12.3996 23.4394 12.1606C23.3228 11.9215 23.2923 11.6584 23.3515 11.4045C23.4108 11.1507 23.5572 10.9175 23.7722 10.7344C23.9873 10.5514 24.2614 10.4267 24.5597 10.3762C24.8581 10.3256 25.1674 10.3515 25.4485 10.4505C25.7296 10.5495 25.9698 10.7172 26.1389 10.9324C26.3079 11.1476 26.3981 11.4006 26.3981 11.6594C26.399 11.8312 26.3599 12.0016 26.2832 12.1606C26.2065 12.3195 26.0937 12.4641 25.9511 12.5859C25.8086 12.7077 25.6392 12.8044 25.4527 12.8704C25.2662 12.9364 25.0661 12.9704 24.8641 12.9705L24.8609 12.9678ZM32.1429 2.1875H3.85714C2.83416 2.1875 1.85309 2.5332 1.12973 3.14856C0.406376 3.76391 0 4.59851 0 5.46875L0 29.5312C0 30.4015 0.406376 31.2361 1.12973 31.8514C1.85309 32.4668 2.83416 32.8125 3.85714 32.8125H32.1429C33.1658 32.8125 34.1469 32.4668 34.8703 31.8514C35.5936 31.2361 36 30.4015 36 29.5312V5.46875C36 4.59851 35.5936 3.76391 34.8703 3.14856C34.1469 2.5332 33.1658 2.1875 32.1429 2.1875ZM30.7671 22.0117C30.6635 23.7638 30.1934 25.3162 28.6899 26.5918C27.1864 27.8674 25.3631 28.2755 23.306 28.3589C21.1838 28.4607 14.8211 28.4607 12.6988 28.3589C10.6393 28.2707 8.8208 27.8701 7.31491 26.5918C5.80902 25.3135 5.33571 23.7604 5.23768 22.0117C5.11795 20.2057 5.11795 14.7923 5.23768 12.9883C5.34134 11.2362 5.8058 9.68379 7.31491 8.4082C8.82402 7.13262 10.6473 6.7293 12.6988 6.6459C14.8211 6.54404 21.1838 6.54404 23.306 6.6459C25.3655 6.73408 27.1896 7.13467 28.6899 8.41299C30.1902 9.69131 30.6691 11.2444 30.7671 12.9965C30.8869 14.7957 30.8869 20.2043 30.7671 22.0117Z" fill="white"/>
</g>
<defs>
<clipPath id="clip0_64_244">
<rect width="36" height="35" fill="white"/>
</clipPath>
</defs>
</svg>
