<svg width="19" height="18" viewBox="0 0 19 18" fill="none" xmlns="http://www.w3.org/2000/svg">
<path d="M17.0366 12.38C15.8047 12.38 14.6128 12.18 13.5011 11.82C13.1505 11.7 12.7599 11.79 12.4895 12.06L10.9171 14.03C8.08263 12.68 5.42848 10.13 4.01628 7.2L5.96933 5.54C6.23975 5.26 6.31987 4.87 6.2097 4.52C5.83912 3.41 5.64883 2.22 5.64883 0.99C5.64883 0.45 5.19812 0 4.65728 0H1.19186C0.651017 0 0 0.24 0 0.99C0 10.28 7.7421 18 17.0366 18C17.7477 18 18.0282 17.37 18.0282 16.82V13.37C18.0282 12.83 17.5775 12.38 17.0366 12.38Z" fill="white" fill-opacity="0.54"/>
</svg>
