<svg width="35" height="35" viewBox="0 0 35 35" fill="none" xmlns="http://www.w3.org/2000/svg">
<path d="M35 5.46875V29.5312C35 31.3428 33.3203 32.8125 31.25 32.8125H12.0625C12.8281 31.6914 13.8125 30.0781 14.2031 28.7588C14.4375 27.9727 15.3984 24.7666 15.3984 24.7666C16.0234 25.8125 17.8516 26.6943 19.7969 26.6943C25.5859 26.6943 29.75 22.0391 29.75 16.2559C29.75 10.7119 24.5781 6.5625 17.9219 6.5625C9.64062 6.5625 5.25 11.4229 5.25 16.7207C5.25 19.1816 6.75 22.2441 9.14062 23.2217C9.50781 23.3721 9.69531 23.3037 9.78125 22.9961C9.84375 22.7637 10.1719 21.6221 10.3125 21.0957C10.3594 20.9248 10.3359 20.7812 10.1797 20.6172C9.39062 19.7764 8.75 18.2314 8.75 16.7891C8.75 13.084 11.9531 9.50195 17.4141 9.50195C22.125 9.50195 25.4297 12.3115 25.4297 16.3311C25.4297 20.8701 22.8125 24.0146 19.3984 24.0146C17.5156 24.0146 16.1094 22.6543 16.5547 20.9795C17.0938 18.9834 18.1406 16.8301 18.1406 15.3877C18.1406 11.7646 12.2422 12.2637 12.2422 17.0967C12.2422 18.5801 12.8125 19.5918 12.8125 19.5918C10.3594 28.6699 9.99219 28.7861 10.5 32.7578L10.6719 32.8125H3.75C1.67969 32.8125 0 31.3428 0 29.5312V5.46875C0 3.65723 1.67969 2.1875 3.75 2.1875H31.25C33.3203 2.1875 35 3.65723 35 5.46875Z" fill="white"/>
</svg>
