<svg width="35" height="35" viewBox="0 0 35 35" fill="none" xmlns="http://www.w3.org/2000/svg">
<path d="M31.25 2.1875H3.75C1.67969 2.1875 0 3.65723 0 5.46875V29.5312C0 31.3428 1.67969 32.8125 3.75 32.8125H31.25C33.3203 32.8125 35 31.3428 35 29.5312V5.46875C35 3.65723 33.3203 2.1875 31.25 2.1875ZM27.4297 13.043C27.4453 13.2344 27.4453 13.4326 27.4453 13.624C27.4453 19.5508 22.2891 26.3799 12.8672 26.3799C9.96094 26.3799 7.26562 25.6416 5 24.3701C5.41406 24.4111 5.8125 24.4248 6.23438 24.4248C8.63281 24.4248 10.8359 23.7139 12.5938 22.5107C10.3438 22.4697 8.45312 21.1777 7.80469 19.4004C8.59375 19.5029 9.30469 19.5029 10.1172 19.3184C7.77344 18.9014 6.01562 17.0967 6.01562 14.916V14.8613C6.69531 15.1963 7.49219 15.4014 8.32812 15.4287C7.62533 15.0197 7.0492 14.4648 6.65115 13.8135C6.25309 13.1622 6.04549 12.4348 6.04688 11.6963C6.04688 10.8623 6.29688 10.0967 6.74219 9.43359C9.26562 12.1543 13.0547 13.9316 17.3047 14.123C16.5781 11.0811 19.1797 8.61328 22.3047 8.61328C23.7812 8.61328 25.1094 9.15332 26.0469 10.0283C27.2031 9.83691 28.3125 9.46094 29.2969 8.94824C28.9141 9.9873 28.1094 10.8623 27.0469 11.416C28.0781 11.3203 29.0781 11.0674 30 10.7188C29.3047 11.6143 28.4297 12.4072 27.4297 13.043Z" fill="white"/>
</svg>
