<svg width="36" height="35" viewBox="0 0 36 35" fill="none" xmlns="http://www.w3.org/2000/svg">
<path d="M15.0107 13.8154L22.6607 17.5137L15.0107 21.2119V13.8154ZM36 5.46875V29.5312C36 31.3428 34.2723 32.8125 32.1429 32.8125H3.85714C1.72768 32.8125 0 31.3428 0 29.5312V5.46875C0 3.65723 1.72768 2.1875 3.85714 2.1875H32.1429C34.2723 2.1875 36 3.65723 36 5.46875ZM32.625 17.5205C32.625 17.5205 32.625 13.4463 32.0143 11.4912C31.6768 10.4111 30.6884 9.56348 29.4268 9.27637C27.1527 8.75 18 8.75 18 8.75C18 8.75 8.84732 8.75 6.57321 9.27637C5.31161 9.56348 4.32321 10.4111 3.98571 11.4912C3.375 13.4395 3.375 17.5205 3.375 17.5205C3.375 17.5205 3.375 21.5947 3.98571 23.5498C4.32321 24.6299 5.31161 25.4434 6.57321 25.7305C8.84732 26.25 18 26.25 18 26.25C18 26.25 27.1527 26.25 29.4268 25.7236C30.6884 25.4365 31.6768 24.623 32.0143 23.543C32.625 21.5947 32.625 17.5205 32.625 17.5205Z" fill="white"/>
</svg>
